<?xml version="1.0" encoding="utf-8"?>
<!-- Generator: Adobe Illustrator 19.2.1, SVG Export Plug-In . SVG Version: 6.00 Build 0)  -->
<svg version="1.1" id="svg" xmlns="http://www.w3.org/2000/svg" xmlns:xlink="http://www.w3.org/1999/xlink" x="0px" y="0px"
	 width="139px" height="240px" viewBox="0 0 139 240" style="enable-background:new 0 0 139 240;" xml:space="preserve">
<style type="text/css">
	.st0{fill:#FFFFFF;}
</style>
<path d="M102,128.3v-2H83.5v2h5.3l-1.8,5l-2.5,0.2v2l13.6-1.3l0.7,1.6h2.3l-2.7-6.2h-2.3l1.2,2.7l-7.9,0.8l1.7-4.7H102z M71.9,118.7
	l-0.6-2.4h-1.9l0.6,2.4H71.9z M115.9,128v7.6h2V127c1,1,2.3,2,2.3,2l1.2-1.5c-1.3-1.1-2.6-2.2-3-2.6c1.2-1.8,2.1-3.4,2.1-3.4v-2
	h-2.6v-3.3h-2v3.3h-3.3v2h5.7c-0.5,0.7-1.5,2.4-2.8,4c-1.9,2.4-4.1,4.5-4.1,4.5l1.3,1.5C112.7,131.5,114.1,130,115.9,128
	 M23.1,129.8c0,0,1.5,1.3,1.5,1.3c1.7-2.7,2.5-4.4,2.9-5.3v9.9h2v-9.2c0.6,1,1.5,2.1,1.5,2.1s1.3-1.4,1.3-1.4
	c-1.7-2.1-2.6-3.9-2.8-4.5v-1.2h2.4v-2h-2.4v-3.3h-2v3.3h-3.4v2h3.2c-0.3,0.8-0.9,2.4-1.7,3.9C24.1,128.5,23.1,129.8,23.1,129.8
	 M92.8,118c3.1,2.5,9.6,6.8,9.6,6.8l1-1.9c-6-3.7-9.6-6.9-9.6-6.9h-2.1c0,0-3.5,3.2-9.6,6.9l1,1.9C83.2,124.7,89.7,120.5,92.8,118
	 M87.3,124.5h11v-2h-11V124.5z M31.8,133.3c0,0,1.5,1.3,1.5,1.3s2.9-3.4,4.4-5.9v7h2v-7c0.3,0.5,0.8,1.2,1.3,1.9c1.3,1.9,3,4,3,4
	l1.6-1.3c0,0-1.5-1.8-2.9-3.8c-1-1.4-1.7-2.4-2.1-3.1h3.9v-2h-4.7v-2.8h4v-2h-4v-3.4h-2v3.4h-2.5c0.3-2.1,0.3-2.9,0.3-2.9h-2.1
	c0,0-0.1,1.1-0.3,3c-0.2,1.8-0.6,3.7-0.6,3.7h2.1c0,0,0.1-0.7,0.3-1.8h2.7v2.8h-5.2v2h4.2C35.9,127.9,34.1,130.7,31.8,133.3
	 M103.7,149.6v41.7h20.7V240h6.9v-90.4H103.7z M124.5,184.4h-13.8v-10.4h13.8V184.4z M124.5,167h-13.8v-10.4h13.8V167z M127.1,133
	v-8.9h4.5v-2h-4.5v-5.9h-2v5.9h-4.2v2h4.2v8.9h-5.5v2H132v-2H127.1z M86.4,240h27.7v-41.7H86.4V240z M107.2,233H93.3v-10.4h13.8V233
	z M107.2,215.7H93.3v-10.4h13.8V215.7z M34.6,149.6h-6.9v63.7L0,240h9.3l21.8-20.9h0L52.9,240h9.3l-27.7-26.8V149.6z M96.8,191.3
	v-41.7H69.1V240h6.9v-48.7H96.8z M76.1,156.5h13.8V167H76.1V156.5z M76.1,173.9h13.8v10.4H76.1V173.9z M60.4,126.2h4v-2H54.2v2h4.1
	v6.1l-4.1,0.7v2.1l10.6-1.8v-2.1l-4.5,0.7V126.2z M69.6,135.6h2.1l1.9-3.3l-1.8-0.9l-1.1,2.1c-0.6-1.6-1.4-4-1.8-7.2
	c-0.2-1.6-0.4-3.3-0.5-4.8h4.5v-2h-4.6c-0.1-2-0.1-3.4-0.1-3.4h-2c0,0,0,1.2,0.1,3.4H53.9v2h12.5c0.1,1.3,0.2,2.9,0.4,4.7
	c0.6,5.5,2.5,9.4,2.5,9.4H69.6z"/>
<rect x="6.9" y="70" width="131.5" height="28.9"/>
<rect x="6.9" y="0.3" width="131.5" height="28.9"/>
<rect x="6.9" y="35.2" width="131.5" height="28.9"/>
<path id="面白くて2.svg" class="st0" d="M17.3,9.5l-3.1-1.3c0.2,1.3,0.3,2.6,0.3,3.9c0,2.5-0.1,8.8-0.2,10.9c0,0.3,0,0.8,0,1
	c0,0.4,0.1,0.8,1,0.8c1.7,0,1.7-1.1,1.6-1.7h12.6c-0.1,0.9-0.1,1.7,0.8,1.7c0.5,0,1.3-0.2,1.5-0.5c0.2-0.3,0.2-0.6,0.2-0.8
	c0-0.3,0-1.5,0-1.8c0-4.2-0.1-9.5,0-10.7c0.5-0.4,0.9-0.7,0.9-1c0-0.1-0.1-0.2-0.2-0.3l-1.6-1.3c-0.1-0.1-0.3-0.2-0.4-0.2
	c-0.2,0-0.3,0.1-0.4,0.3l-0.7,1H22c0.2-0.2,2.2-2.7,2.9-3.7h8.7c0.2,0,0.3-0.1,0.3-0.2c0,0,0,0,0-0.1c0-0.1-0.1-0.3-0.2-0.4
	l-1.8-1.4c-0.1-0.1-0.3-0.2-0.4-0.2c-0.2,0.1-0.3,0.2-0.4,0.3l-1.1,1.4H16c-1.1,0-2.3,0-3.4-0.1L13,5.9c0.8-0.1,1.7-0.2,2.5-0.2h6.2
	c-0.5,2.8-0.6,3.1-0.8,3.7L17.3,9.5L17.3,9.5z M19.4,10v12.5H17V10L19.4,10L19.4,10z M21.6,22.6v-4h3v4H21.6z M26.8,22.6V10h2.8
	v12.5L26.8,22.6L26.8,22.6z M24.5,10v3.6h-3V10H24.5z M24.5,18h-3v-3.8h3C24.5,14.2,24.5,18,24.5,18z M65.3,8.7
	c0-0.2-0.1-0.3-0.3-0.4L63.3,7c-0.1-0.1-0.3-0.2-0.5-0.3c-0.2,0-0.3,0.1-0.4,0.3l-0.8,1h-6.8c0.5-0.4,2-2,2.7-2.8
	c0.6-0.2,0.9-0.3,0.9-0.6c0-0.2-0.1-0.3-0.3-0.4l-3.5-1.1c0,1.6-0.2,3.3-0.6,4.8h-3.1l-3-1.3c0.3,1.6,0.3,1.6,0.3,5.4
	c0,3.4,0,6.9-0.1,10.3c0,0.2-0.1,1.3-0.1,1.5c-0.1,0.5,0.3,0.9,0.8,0.9c0.1,0,0.1,0,0.2,0c0.8,0,1.5-0.3,1.7-1c0-0.2,0.1-0.5,0-0.8
	h11.1c0,1.3,0,1.7,1,1.7c0.7,0,1.7-0.1,1.7-1.4c0-0.1,0-0.2,0-0.2c0-0.4-0.1-6.9-0.1-11.9c0-0.2,0-1,0-1.8C65.2,9,65.3,8.9,65.3,8.7
	z M61.9,15.1H50.9V8.6h11.1V15.1z M61.9,22.6H50.9v-6.9h11.1V22.6L61.9,22.6z M92.8,23.5c0-0.9-0.4-1.7-1-2.3
	c-2.2-2.1-4.6-4.1-7.1-5.9c-0.6-0.4-0.8-0.7-0.8-1.1c0-0.4,0.2-0.7,0.5-1c2.1-2.1,4.3-4,6.7-5.8C91.6,7,92.2,6.6,92.2,6
	c0-0.9-1.8-2.6-3.6-2.6c-0.3,0-0.7,0-1,0.1c0.4,0.2,1.4,0.8,1.4,1.6c0,1-2,3.2-5.8,7.2c-1,1.1-1.1,1.6-1.1,2s0.1,0.8,0.9,1.6
	c4,3.9,4.9,4.7,6,6.6c1.6,2.6,1.7,2.7,2.3,2.7C92.2,25.2,92.8,24.5,92.8,23.5L92.8,23.5z M110.8,7.3c-0.4,0.5-0.6,1.1-0.5,1.7
	c0,1.8,1.5,2.9,2.4,2.9c0.5,0,0.8-0.1,1.6-0.7c1.4-0.8,5.4-2.6,7.7-2.9c-2.2,1.5-5.2,4.3-5.2,8.3c0,6.5,7.9,7,8.3,7
	c0.4,0,1.5,0,1.5-1.2c0-1.6-1.6-1.8-3.1-2c-3.6-0.4-5.2-2.3-5.2-4.7c0-2.5,1.5-5.2,3.9-6.6c0.7-0.4,1.8-0.9,5.2-0.9
	c1.4,0,2.2,0,2.2-1c0-1-1.3-1.7-2.5-1.7c-0.4,0-1,0.2-2.4,0.6C124.4,6.3,114.3,9,112.8,9C112.1,9,111.4,8.8,110.8,7.3L110.8,7.3z
	 M33.8,57.1v-0.2C33.1,57,32.4,57,31.7,57c-2.1,0-4.1-0.3-6.1-1c1.2-0.8,2.2-1.7,3.2-2.8c0.2-0.1,1.1-0.3,1.3-0.4
	c0.1-0.1,0.2-0.2,0.2-0.3c0-0.2-0.1-0.3-0.3-0.4l-1.7-1.3c-0.1-0.1-0.3-0.2-0.5-0.3c-0.2,0.1-0.4,0.2-0.5,0.4l-1.1,1h-4.9
	c0.3-0.3,0.5-0.5,0.7-0.8c0.8-0.3,1-0.4,1-0.6c0-0.1-0.1-0.3-0.3-0.3l-2.8-1.1c-0.5,2.1-4.1,6.1-6.7,7.8v0.1
	c3.1-0.9,5.8-3.1,6.7-3.9c0.6,1.1,1.4,2.1,2.4,2.9c-1.9,1.3-5.3,2.8-9.7,3.7l0,0.2c3.9,0.1,7.8-0.8,11.2-2.7
	c2.4,1.6,5.3,2.3,8.2,2.6C32.2,58.6,32.9,57.7,33.8,57.1L33.8,57.1z M25.9,52.5c-0.6,1-1.4,1.9-2.4,2.6c-1.2-0.6-2.3-1.3-3.2-2.3
	c0.1-0.1,0.2-0.2,0.3-0.3H25.9z M32.9,47.1c0-1.9-3.7-3.4-5.7-3.5l0,0.2c1.2,0.8,2.2,1.9,2.9,3.2c0.6,1.1,0.9,1.5,1.6,1.5
	C32.3,48.5,32.9,47.9,32.9,47.1z M33.3,41.8c0-0.1-0.1-0.3-0.2-0.4l-2-1.5c-0.1-0.1-0.3-0.2-0.4-0.2c-0.2,0-0.3,0.1-0.4,0.3l-1,1.4
	h-5.1c0-0.4,0-1.1,0-1.3c0.2-0.2,0.3-0.3,0.5-0.5c0.1-0.1,0.2-0.2,0.2-0.4c-0.1-0.2-0.2-0.3-0.4-0.3l-3.3-0.7c0.4,1,0.6,2.1,0.5,3.1
	h-5.7c-1.1,0-2.3,0-3.4-0.1l0.4,0.9c0.8-0.1,1.7-0.2,2.6-0.2h4c0.2,3.8-0.9,7.1-6.1,9.8V52c3.5-0.7,5.3-2.3,6.2-3.2
	c1.7-1.7,2.3-4.2,2.4-6.8h2.1v4.9c0.1,0.2-0.1,0.5-0.3,0.6c0,0-0.1,0-0.1,0c-0.4,0-2-0.1-2.4-0.1l0,0.2c1.2,0.8,2.2,1.4,2.3,3
	c2.9-0.6,2.9-2.1,2.9-2.8c0-0.9,0-4.8-0.1-5.6h6.4C33.1,42.1,33.2,42,33.3,41.8C33.3,41.8,33.3,41.8,33.3,41.8z M18.5,44.8
	c0-0.2-0.2-0.3-0.3-0.3l-2.7-1.4c0,0.5-0.1,1-0.2,1.4c-0.7,1.9-1.7,3.6-2.9,5.1l0.1,0.1c1.6-0.7,3.5-2.3,5.2-4.4
	C18.3,45.1,18.5,45,18.5,44.8L18.5,44.8z M52,42.9c0-0.7-1.2-1.2-1.6-1.2c-0.3,0-0.4,0.1-1.4,0.5c-0.6,0.3-1.2,0.5-1.8,0.7
	c0.2-0.5,0.5-1,0.8-1.5c0.4-0.5,0.5-0.8,0.5-1.1c0-0.8-1.9-1.6-2.9-1.6c-0.6,0-1.3,0.3-1.7,0.8c1.5,0.3,1.7,0.8,1.7,1.3
	c0,0.8-0.5,2.3-0.7,2.8c-0.8,0.2-1.6,0.3-2.4,0.3c-0.8,0-2.2-0.1-2.8-1c0,0.2-0.1,0.4-0.1,0.5c0,0.7,0.7,2.1,3,2.1
	c0.5,0,1-0.1,1.6-0.2c-1.1,2.3-2.4,4.4-3.8,6.5c-0.5,0.6-0.8,0.9-0.8,1.7c0,1,0.7,1.4,1.1,1.4c0.2,0,0.3-0.1,0.5-0.2
	c0.5-0.4,1.5-2.1,2.2-3.6c0.7-1.5,2.7-5.8,2.9-6.2c1.7-0.3,3.5-0.7,5.1-1.3C51.8,43.5,52,43.2,52,42.9L52,42.9z M57.8,48.3
	c0-1.3-1.9-3.1-4.8-3.1c-0.8,0-1.5,0.1-2.2,0.4c2.2,0.4,3.3,1.3,3.3,1.6c0,0.2-0.2,0.3-0.3,0.3c0,0,0,0-0.1,0
	c-0.2,0-4.1,0.4-4.1,4.3c0,0.5,0,0.8,0.1,1.6c-0.3,0-0.6,0-1,0c-2.6,0-4.6,1-4.6,3s2.3,2.9,4.1,2.9c1,0,2-0.3,2.8-0.9
	c0.7-0.6,1.1-1.4,1.1-2.2c0.6,0.3,1.1,0.6,1.6,1c0.4,0.3,1.2,1,1.8,1c0.6,0,1-0.6,1-1.2c0-1.8-2.9-2.9-4.6-3.2
	c-0.2-0.9-0.3-1.8-0.4-2.7c0-0.6,0-2.8,2.3-2.8c0.7,0,1.4,0.3,1.9,0.7c0.4,0.3,0.8,0.4,1.2,0.4c0.2,0,0.5-0.1,0.7-0.2
	C57.8,48.9,57.9,48.6,57.8,48.3L57.8,48.3z M49.8,55.2c0,0.6-0.1,2.4-2.4,2.4c-0.1,0-2.4,0-2.4-1.3c0-1.3,2-1.4,2.5-1.4
	C48.3,54.8,49,54.9,49.8,55.2L49.8,55.2z M78.6,43.5c0-0.9-1.3-2-3-2c-0.4,0-2.2,0.1-2.6,0.1c-3.3,0-4.5-0.4-5.8-1.6
	c0,0.8,0.3,1.5,0.9,2.1c0.8,0.7,2,1.3,4,1.6c0.2,0,0.4,0,0.4,0.2c-0.1,0.1-0.1,0.2-0.3,0.3c-0.4,0.3-2.1,1.6-2.5,1.9l0.1,0.2
	c3.9-1.7,5.2-1.7,7.1-1.7C77.5,44.5,78.6,44.5,78.6,43.5L78.6,43.5z M80.8,56c0-0.9-1.5-1.5-2.4-1.5c-0.2,0-0.4,0-0.6,0.1
	c-1.8,0.4-3.6,0.7-5.4,0.6c-1.6,0-6,0-6-3.7c0-0.7,0.1-0.9,0.5-2C65.8,50,65,51.7,65,52.8c0,2,1.5,3.2,2.4,3.7
	c1.9,1.1,4.6,1.2,6.2,1.2c1.7,0,4.8,0,6-0.5C80.1,57,80.8,56.7,80.8,56L80.8,56z M104.1,57.1c0-1.1-1.4-1.5-2.1-1.5
	c-0.3,0-0.6,0.1-0.9,0.1c-1.8,0.4-3.6,0.6-5.5,0.6c-1.6,0-4.8,0-4.8-2.3c0-2.6,5.2-5.5,11.1-6.1c1.1-0.1,1.6-0.2,1.6-1.2
	c0-1.3-1.1-2.5-3-2.7c0.2,0.3,0.3,0.6,0.4,1c0,0.4-0.3,0.6-0.8,0.8c-1.3,0.5-2.6,1.1-3.9,1.8c-0.4-0.5-0.4-1.2-0.4-1.9
	c-0.1-1.5,0.2-3,0.7-4.4c0.1-0.2,0.2-0.4,0.2-0.6c0-0.9-2.4-1.8-3.6-1.8c-0.7,0-1.4,0.2-1.9,0.7c0.5,0.1,2,0.4,2.3,1.5
	c0.1,0.5,0.1,0.8,0.1,4.4c0,1,0.4,2,1.1,2.8c-1.1,0.6-4.8,2.9-4.8,6c0,1,0.5,2,1.3,2.7c1.7,1.4,6.2,1.5,7.5,1.5c1.1,0,4.1-0.1,5-0.5
	C103.9,57.9,104.2,57.5,104.1,57.1L104.1,57.1z M130.7,47.8c0-1.2-1.6-2.5-3.1-2.5c-0.4,0-0.7,0.1-1,0.3c0.9,0.4,1,0.5,1,0.8
	c0,0.2,0,0.4-0.6,0.7c-0.1,0.1-3.5,1.8-4.1,2.1c-0.3-0.9-0.9-2-2.9-2c-0.9,0-1.7,0.2-2.5,0.6c0.3-0.5,1.9-2.8,2.2-3.3
	c1.8-0.2,3.6-0.6,5.3-1.2c0.4-0.1,0.7-0.4,0.7-0.8c0-0.4-0.9-1.1-1.6-1.1c-0.2,0-0.4,0-0.5,0.1c-0.4,0.1-2.2,0.9-2.6,1
	c0.3-0.5,0.6-0.9,1-1.3c0.6-0.6,0.7-0.8,0.7-1.2c0-0.6-1.2-1.4-2.5-1.4c-0.8,0-1.7,0.3-2.2,1c1.1,0,1.8,0.4,1.8,0.8
	c0,0.5-0.8,2-1.2,2.6c-0.7,0.1-1.4,0.2-2,0.2c-1.5,0-2.4-0.3-3.1-1c0,1,0.6,2.6,3.1,2.6c0.4,0,0.7,0,1.1-0.1c-0.9,1.4-1.9,2.8-3,4
	c-1.2,1.2-1.3,1.4-1.3,2.3c0,0.7,0.2,1.5,0.9,1.5c0.2,0,0.4-0.1,0.5-0.2c0.5-0.6,0.9-1.3,1.3-2c0.7-1.2,1.8-2.3,3.2-2.3
	c1.3,0,1.5,1.2,1.7,2.3c-1.8,1.1-4.6,3.2-4.6,5.6c0,3,4.9,3.1,6.4,3.1c1.4,0,2.8-0.2,4.2-0.4c0.4-0.1,0.7-0.5,0.7-1
	c0-0.6-0.8-1.5-1.7-1.5c-0.1,0-0.9,0.1-1.2,0.1c-1.2,0.2-2.4,0.4-3.6,0.4c-1.2,0-3.5-0.1-3.5-1.7c0-1.3,2-2.7,3.3-3.4v0.2
	c0,0.2-0.1,1.5-0.1,1.7c0,0.9,0.5,1.7,1.2,1.7c1.3,0,1.3-1.9,1.3-2.5c0-0.7-0.1-1.5-0.2-2.2c2.1-0.9,4.3-1.5,6.6-1.7
	C130.3,48.6,130.7,48.5,130.7,47.8L130.7,47.8z M33.8,80.8c0-0.1-0.1-0.3-0.2-0.4l-1.9-1.6c-0.1-0.1-0.3-0.2-0.4-0.2
	c-0.2,0-0.3,0.1-0.4,0.3l-1.1,1.6h-3.4c1.4-1.3,2.8-2.8,4-4.3c1-0.1,1.2-0.3,1.2-0.4c0-0.2-0.1-0.3-0.3-0.4l-2.8-2
	c-0.2,1.2-1.1,2.4-1.9,3.5c-0.1,0-0.1-0.1-0.2-0.1l-1.4-1.2c-0.1-0.1-0.3-0.2-0.4-0.3c-0.2,0.1-0.3,0.2-0.4,0.3l-0.8,1.2h-0.8V75
	c0.5-0.3,0.8-0.5,0.8-0.8c0-0.2-0.2-0.3-0.4-0.3l-3.3-0.7c0.2,0.6,0.4,1.3,0.5,3.6H18c-0.3,0-1.9,0-3.4-0.1l0.4,0.9
	c0.8-0.1,1.7-0.2,2.6-0.2h2.9c0,1,0,2.2,0,3.2H16c-0.3,0-1.9,0-3.3-0.1l0.4,0.9c0.8-0.1,1.7-0.2,2.5-0.2H23
	c-0.8,0.8-1.7,1.5-2.6,2.2L19,82.6c0,0.6-0.1,1.2-0.2,1.8c-2,1.4-4.2,2.7-6.4,3.8l0.1,0.2c2.1-0.5,4.1-1.3,6-2.2
	c-0.1,0.5-0.8,3.3-0.8,3.5c0,0.4,0.2,0.7,1,0.7c1.2,0,1.4-0.7,1.7-1.9h7.2c-1.2,3.2-1.3,3.7-2.9,3.7c-0.7,0-1-0.1-3.4-0.6l0,0.2
	c2,1.3,2.1,2.5,2.1,3.3c3-0.1,5.1-0.7,6.6-5.7c1-0.3,1.4-0.5,1.4-0.8c0-0.2-0.1-0.4-0.3-0.5l-1.6-1.3c-0.4-0.3-0.4-0.3-0.5-0.3
	c-0.2,0-0.3,0.1-0.4,0.3l-0.9,1h-6.9c0-0.3,0.3-1.6,0.4-1.9c2.4-0.2,4.8-0.7,7.1-1.3c0.4-0.1,0.8-0.1,1.2-0.1c0.4,0,0.7,0,0.7-0.3
	c0-0.2-0.1-0.3-0.3-0.4l-2-1.8c-1.5,1.5-4.5,2.8-6.5,3.4l0.2-0.8c1.7-1.1,3.2-2.3,4.7-3.6h7.7C33.6,81.1,33.8,81,33.8,80.8
	C33.8,80.8,33.8,80.8,33.8,80.8z M26.3,77.3c-0.8,1.1-1.7,2.2-2.7,3.2h-0.8c0-0.6,0-2.7,0-3.2H26.3z M51.7,77.3c0-0.1,0-1.7-2.7-2.2
	c-1.6-0.4-2.8-0.6-4.2-1.9c0.1,1.1,0.3,1.9,2,2.9c0.7,0.4,0.8,0.5,0.8,0.7c0,0.4-1.2,1.2-1.9,1.5l0.1,0.2c0.9-0.3,1.8-0.5,2.7-0.5
	c0.3,0,2,0.3,2.3,0.3C51.3,78.3,51.7,77.8,51.7,77.3C51.7,77.3,51.7,77.3,51.7,77.3z M57.7,92.7c-0.1-0.9-0.9-1.6-1.8-1.6
	c-0.5,0-1,0.1-1.4,0.3c-0.8,0.3-1.7,0.5-2.6,0.5c-1.2,0-1.3-0.7-1.6-1.8c-0.4-1.4-0.7-2.6-2.4-2.6c-0.5,0-1,0.1-1.5,0.2
	c1.9-2.2,4-3.5,6.1-4.8c0.4-0.2,0.6-0.5,0.6-0.9c0-0.8-1.8-1.9-2.3-1.9c-0.2,0-0.3,0-1.3,0.4c-1,0.4-4.4,1.4-5.5,1.4
	c-1,0-1.3-0.7-1.5-1.3c-0.4,0.4-0.6,0.9-0.7,1.5c0,1.2,1.5,2.1,2.4,2.1c0.5,0,0.6-0.1,1.2-0.6c0.3-0.2,3.6-2,4.3-2
	c0.1,0,0.2,0.1,0.2,0.2c0,0,0,0,0,0c0,0.1-0.1,0.3-0.2,0.4c-4.6,4.8-6.3,6.6-7.4,7.6c-2.2,2-2.4,2.1-2.4,3.1c0,0.8,0.4,1.3,1.1,1.3
	c0.8,0,1.1-0.4,2.6-2.8c2-3,2.6-3.2,3.3-3.2c0.9,0,1.2,0.4,1.4,1.1c0.1,0.4,0.3,2.2,0.4,2.6c0.5,1.5,1.4,2.1,6,2.1
	C55.2,94,57.7,94,57.7,92.7L57.7,92.7z M62.9,77.2c-0.4,0.5-0.6,1.1-0.5,1.7c0,1.8,1.5,2.9,2.4,2.9c0.5,0,0.8-0.1,1.6-0.7
	c1.4-0.8,5.4-2.6,7.7-2.9c-2.2,1.5-5.2,4.3-5.2,8.3c0,6.5,7.9,7,8.3,7c0.4,0,1.5,0,1.5-1.2c0-1.6-1.6-1.8-3.1-2
	c-3.6-0.4-5.2-2.3-5.2-4.7c0-2.5,1.5-5.2,3.9-6.6c0.7-0.4,1.8-0.9,5.2-0.9c1.4,0,2.2,0,2.2-1c0-1-1.3-1.7-2.5-1.7
	c-0.4,0-1,0.2-2.4,0.6c-0.2,0.1-10.3,2.8-11.9,2.8C64.1,78.9,63.5,78.7,62.9,77.2L62.9,77.2z M108.2,85.7c0-3.4-3.5-7.1-6.6-7
	c1,0.8,1.9,1.7,2.6,2.8c0.6,1,1,2.1,1.1,3.2c0,0.3-0.1,0.5-0.4,0.6c-0.3,0.1-2.4,0.3-2.6,0.4v0.2c0.5,0.1,2.4,0.4,3,1.1
	c1,1.1,1.1,1.2,1.5,1.2C107.5,88.1,108.2,87.1,108.2,85.7L108.2,85.7z M98.1,83l-0.2-0.1c-0.4,0.7-2.2,3.2-3,4.3
	c-0.3,0.4-0.9,1.2-1.2,1.2c-0.4,0-1.5-1.5-1.5-3.7c0-1.3,0.2-2.6,0.6-3.9c0.1-0.2,0.1-0.5,0.1-0.7c0-1.9-2.1-2.9-3.8-3.1
	c0.6,1,1,2.1,1.1,3.3c0,0.5,0.1,2.9,0.1,3.4c0.3,6.6,3.6,8.2,4.7,8.2c0.6,0,1.1-0.4,1.1-1c0,0,0-0.1,0-0.1c0-0.2-0.3-1.3-0.3-1.6
	c0-0.2,0.1-0.4,0.1-0.7C96,88.5,97.9,83.4,98.1,83L98.1,83z M132,87.6c0-1.7-1.2-4.7-5.5-4.7c-2.3,0-4,0.8-5.4,1.5
	c0.9-1.6,5-5.7,5.9-6.3c1.2-0.8,1.4-1,1.4-1.6c0-0.8-1.4-1.9-2.4-1.9c-0.4,0.1-0.8,0.2-1.2,0.4c-0.7,0.3-3.1,1-4.3,1
	c-0.9,0-1.3-0.5-1.8-1.3c-0.3,0.4-0.5,1-0.5,1.5c0,1.2,0.9,2.2,2.1,2.3c0.3,0,0.7-0.2,0.9-0.4c0.1-0.1,3.3-1.8,3.7-1.8
	c0.1,0,0.2,0,0.2,0.1c0,0,0,0,0,0c0,0.1-0.1,0.2-0.1,0.3c-0.3,0.5-1.2,1.7-2,2.6c-4.2,5.2-4.7,5.9-5.7,6.9c-1.2,1.2-1.7,1.7-1.7,2.6
	c0,0.7,0.4,1.5,1.1,1.5c0.6,0,1-0.7,1.3-1.1c1.3-2,3.7-5.7,7.9-5.7c2.3,0,3.4,1.7,3.4,3.4c0,1.8-1.2,3.6-2.6,4
	c-0.5-2.5-2.5-3.2-3.6-3.2c-1.2,0-3.1,0.7-3.1,2.4c0,2,2.3,3.1,4.9,3.1C129.5,93.5,132,90.3,132,87.6L132,87.6z M125,91.8
	c-0.3,0.1-0.5,0.1-0.8,0.1c-0.5,0-3.1-0.4-3.1-1.7c0-0.6,0.5-1,1.1-1C122.8,89.1,124.4,89.6,125,91.8L125,91.8z"/>
</svg>
